<svg
    width="24"
    height="24"
    viewBox="0 0 24 24"
    fill="none"
    xmlns="http://www.w3.org/2000/svg"
>
    <path
      d="M23.52 12.29C23.52 11.43 23.47 10.74 23.33 10H12V14.51H18.47C18.18 15.99 17.34 17.25 16.08 18.1L19.95 21.1C22.22 19.01 23.52 15.92 23.52 12.29Z"
      fill="#4285F4"
    />
    <path
      d="M12 24C15.24 24 17.96 22.92 19.95 21.1L16.08 18.1C15 18.82 13.62 19.24 12 19.24C8.87 19.24 6.22 17.13 5.27 14.3H1.28V17.39C3.26 21.32 7.34 24 12 24Z"
      fill="#34A853"
    />
    <path
      d="M5.27 14.3C5.03 13.56 4.9 12.78 4.9 12C4.9 11.22 5.03 10.44 5.27 9.7V6.61H1.28C0.46 8.24 0 10.07 0 12C0 13.93 0.46 15.76 1.28 17.39L5.27 14.3Z"
      fill="#FBBC05"
    />
    <path
      d="M12 4.76C13.76 4.76 15.34 5.36 16.58 6.55L20.03 3.11C17.96 1.17 15.24 0 12 0C7.34 0 3.26 2.68 1.28 6.61L5.27 9.7C6.22 6.87 8.87 4.76 12 4.76Z"
      fill="#EA4335"
    />
</svg>