<svg
    width="24"
    height="24"
    viewBox="0 0 24 24"
    fill="none"
    xmlns="http://www.w3.org/2000/svg"
>
    <path
      d="M20.4471 20.452H16.8927V14.8813C16.8927 13.5532 16.868 11.8447 15.0435 11.8447C13.1932 11.8447 12.9095 13.2899 12.9095 14.7853V20.452H9.35513V9.00693H12.7667V10.5701H12.8156C13.2902 9.67086 14.4504 8.72141 16.1802 8.72141C19.7797 8.72141 20.4471 11.0906 20.4471 14.1673V20.452ZM5.33785 7.44297C4.1969 7.44297 3.2736 6.51817 3.2736 5.37893C3.2736 4.23812 4.1969 3.31332 5.33785 3.31332C6.47723 3.31332 7.40209 4.23812 7.40209 5.37893C7.40209 6.51817 6.47723 7.44297 5.33785 7.44297ZM3.56075 20.452H7.11651V9.00693H3.56075V20.452Z"
      fill="#0077B5"
    />
</svg>